<?xml version="1.0" standalone="no"?>
<!DOCTYPE svg PUBLIC "-//W3C//DTD SVG 20010904//EN"
 "http://www.w3.org/TR/2001/REC-SVG-20010904/DTD/svg10.dtd">
<svg version="1.0" xmlns="http://www.w3.org/2000/svg"
 width="2363.000000pt" height="2363.000000pt" viewBox="0 0 2363.000000 2363.000000"
 preserveAspectRatio="xMidYMid meet">
<metadata>
Created by potrace 1.14, written by Peter Selinger 2001-2017
</metadata>
<g transform="translate(0.000000,2363.000000) scale(0.100000,-0.100000)"
fill="#000000" stroke="none">
<path d="M11743 21344 c-81 -21 -132 -51 -194 -115 -117 -118 -142 -288 -68
-446 33 -70 119 -155 187 -185 l43 -19 -28 -22 c-288 -222 -833 -741 -1109
-1057 -21 -24 -47 -54 -57 -65 -51 -56 -233 -283 -306 -380 -45 -60 -88 -117
-94 -125 -19 -23 -230 -342 -244 -368 -7 -13 -35 -61 -62 -105 -73 -122 -203
-371 -236 -454 -1 -2 -64 28 -141 66 -354 176 -814 326 -1184 386 -19 3 -46 8
-60 10 -57 12 -76 15 -123 20 -28 3 -53 7 -56 9 -3 2 -33 7 -66 11 -33 3 -73
8 -90 10 -83 10 -126 15 -190 20 -38 3 -92 8 -120 10 -186 16 -771 23 -965 10
-30 -2 -76 -4 -101 -4 l-47 -1 -7 -52 c-4 -29 -9 -62 -11 -73 -2 -11 -8 -56
-14 -100 -6 -44 -13 -91 -15 -105 -6 -37 -15 -108 -20 -165 -3 -27 -7 -63 -10
-80 -2 -16 -7 -66 -10 -110 -4 -44 -8 -96 -10 -115 -25 -222 -25 -805 0 -1074
11 -115 42 -356 50 -386 2 -8 7 -35 10 -60 4 -24 9 -48 12 -53 5 -8 -28 -6
-117 8 -70 10 -111 15 -175 21 -38 3 -82 7 -96 9 -15 2 -82 6 -150 10 -68 4
-128 8 -133 9 -4 0 -10 -6 -11 -14 -2 -8 -14 -55 -28 -105 -29 -105 -66 -264
-81 -350 -3 -16 -8 -41 -11 -55 -4 -22 -9 -45 -21 -115 -9 -46 -33 -224 -38
-277 -3 -32 -8 -82 -12 -110 -27 -261 -14 -691 27 -908 89 -463 221 -779 458
-1095 92 -122 295 -328 411 -417 167 -128 394 -264 543 -323 l41 -16 -40 -24
c-21 -13 -57 -33 -79 -45 -139 -76 -421 -266 -444 -298 -134 -189 6 -407 270
-418 116 -5 176 15 314 106 383 250 968 512 1544 692 111 34 467 134 510 143
9 2 86 19 171 38 140 32 479 100 555 111 56 8 120 18 140 22 11 2 40 6 65 10
25 3 70 9 100 14 30 5 82 12 115 15 33 3 71 8 85 10 14 3 52 7 85 10 33 3 76
8 95 10 19 2 67 7 105 10 39 4 81 8 95 10 14 2 75 7 135 10 61 4 128 8 151 10
154 13 422 20 819 20 459 0 750 -9 980 -30 33 -3 85 -8 115 -10 102 -8 185
-16 210 -20 14 -2 55 -7 92 -10 37 -3 77 -8 90 -10 13 -2 50 -6 83 -10 32 -4
66 -8 75 -10 8 -1 42 -6 75 -11 33 -4 62 -8 65 -9 3 -1 30 -5 60 -9 30 -5 62
-10 71 -11 9 -2 34 -6 55 -9 74 -12 160 -28 309 -58 83 -16 161 -32 175 -34
143 -28 559 -136 786 -205 263 -79 659 -223 845 -307 24 -11 78 -34 119 -52
92 -40 394 -192 464 -233 28 -17 96 -58 151 -92 172 -106 184 -111 315 -109
104 1 178 27 243 84 105 93 117 235 29 341 -31 38 -264 189 -476 310 l-118 68
88 44 c618 311 1038 808 1229 1455 19 64 37 132 40 151 3 19 8 37 10 40 2 4 6
26 10 51 4 25 8 47 10 50 1 3 6 28 9 55 4 28 9 64 11 80 33 223 38 673 10 860
-2 17 -9 74 -15 129 -7 54 -13 106 -15 115 -1 9 -10 63 -20 121 -9 58 -20 119
-25 135 -5 17 -11 44 -13 60 -5 33 -57 251 -85 356 -14 53 -21 66 -35 63 -10
-1 -68 -5 -130 -8 -62 -4 -123 -8 -137 -10 -14 -3 -61 -7 -105 -11 -44 -4 -88
-9 -98 -11 -18 -3 -18 -1 -2 76 4 22 7 42 21 140 3 19 7 46 9 60 2 14 7 57 11
95 3 39 8 84 10 100 25 230 25 910 -1 1125 -2 19 -9 87 -15 150 -13 135 -20
196 -25 230 -2 14 -7 48 -10 75 -7 51 -9 68 -21 140 -4 22 -7 47 -8 55 -1 8
-6 36 -10 63 l-8 47 -52 1 c-28 1 -80 3 -116 5 -209 11 -778 5 -940 -11 -19
-2 -69 -6 -110 -10 -94 -8 -144 -13 -195 -19 -22 -3 -65 -8 -95 -11 -30 -3
-62 -8 -70 -10 -8 -2 -35 -7 -60 -10 -25 -3 -56 -8 -70 -10 -58 -12 -76 -15
-115 -21 -22 -3 -67 -12 -100 -19 -33 -8 -71 -16 -85 -19 -14 -3 -54 -12 -90
-21 -36 -9 -72 -18 -80 -20 -37 -9 -203 -58 -290 -87 -213 -69 -554 -218 -686
-299 l-31 -19 -76 152 c-168 340 -400 710 -634 1008 -31 40 -271 329 -298 359
-128 144 -295 319 -448 470 -103 100 -139 135 -239 226 -115 106 -356 313
-414 357 -24 18 -44 35 -44 38 0 3 17 13 38 22 106 45 204 183 220 305 36 274
-221 505 -485 437z m171 -2621 c231 -137 469 -311 681 -496 103 -91 343 -331
426 -427 35 -41 69 -79 74 -85 11 -13 50 -62 94 -120 17 -22 38 -49 47 -60 9
-11 38 -53 65 -93 l50 -73 -69 -77 c-125 -139 -254 -317 -360 -492 -68 -113
-227 -447 -248 -520 -2 -8 -22 -67 -44 -130 -66 -193 -128 -455 -146 -620 -3
-30 -7 -66 -9 -79 -3 -14 -7 -68 -10 -120 -4 -74 -3 -90 6 -71 6 14 12 32 14
40 2 8 9 29 16 45 7 17 13 32 13 35 1 5 47 120 67 165 25 59 162 338 192 390
98 174 228 361 357 516 141 169 469 465 489 443 4 -5 27 -54 50 -109 23 -55
46 -109 51 -120 40 -95 125 -367 144 -465 3 -14 7 -36 11 -50 68 -305 92 -633
71 -991 -4 -70 -8 -135 -10 -145 -2 -11 -7 -46 -10 -79 -12 -99 -34 -239 -51
-315 -3 -14 -8 -38 -11 -55 -2 -16 -10 -48 -15 -70 -6 -22 -12 -47 -14 -55
-31 -158 -189 -634 -257 -775 l-19 -40 43 46 c62 66 209 276 306 436 156 259
354 695 412 908 5 17 20 71 35 120 15 50 29 100 31 112 2 12 9 34 14 48 5 14
8 25 5 25 -2 0 1 15 6 33 5 17 12 46 15 62 3 17 9 48 14 70 13 60 40 253 57
405 16 151 9 634 -12 795 -6 45 -24 166 -30 200 -9 50 -24 129 -30 155 -20
100 -26 130 -25 132 0 2 -8 29 -19 61 l-20 57 36 15 c82 34 354 104 471 120
20 3 48 8 62 10 23 5 49 8 133 19 201 27 695 28 835 1 9 -1 44 -6 77 -9 57 -7
183 -27 252 -42 18 -3 37 -12 43 -19 9 -11 74 -216 85 -270 2 -11 13 -63 24
-115 27 -126 34 -170 50 -295 25 -194 32 -303 31 -490 -1 -235 4 -212 -54
-231 -44 -15 -132 -49 -250 -97 -76 -31 -301 -149 -394 -208 -693 -432 -1099
-1146 -1117 -1964 -4 -173 2 -216 19 -134 9 45 54 194 84 279 188 532 522 948
957 1190 111 62 312 154 360 164 6 2 51 15 100 30 170 50 174 51 154 14 -6
-11 -12 -27 -14 -36 -14 -73 -154 -383 -238 -527 -303 -516 -804 -962 -1424
-1265 -51 -25 -92 -49 -93 -53 0 -5 3 -6 8 -4 4 3 30 8 57 11 28 4 58 9 67 12
16 5 37 9 88 19 14 3 75 18 135 35 61 17 117 32 126 34 95 23 483 189 607 260
35 20 66 36 68 36 5 0 101 61 214 136 205 136 465 365 613 539 73 86 97 116
143 175 137 178 303 459 379 641 15 35 31 66 35 69 5 3 30 4 55 2 47 -4 47 -4
75 -66 77 -168 162 -479 185 -671 4 -27 9 -61 12 -75 9 -45 11 -424 3 -485 -5
-33 -12 -82 -15 -110 -27 -221 -136 -525 -268 -745 -122 -202 -336 -443 -531
-597 l-90 -70 -110 56 c-390 200 -951 417 -1426 551 -133 38 -388 104 -440
115 -8 2 -55 12 -105 24 -124 27 -371 78 -420 85 -22 3 -62 11 -90 16 -27 5
-63 12 -80 14 -160 25 -228 36 -274 41 -30 4 -62 8 -71 10 -10 2 -62 8 -116
15 -55 6 -112 13 -129 15 -16 2 -61 7 -100 10 -38 4 -83 9 -100 11 -16 2 -68
6 -115 9 -47 3 -98 8 -115 10 -27 3 -114 8 -365 20 -41 2 -99 4 -128 4 l-53 1
58 46 c164 132 336 340 455 550 48 84 129 249 158 319 4 11 15 36 23 55 90
213 249 701 233 717 -13 14 -396 -204 -615 -350 -149 -99 -255 -178 -343 -256
-43 -38 -38 -45 -68 96 -39 189 -106 414 -192 643 -38 102 -140 345 -148 354
-10 10 -39 -53 -124 -266 -105 -266 -214 -628 -242 -803 -3 -22 -8 -43 -11
-48 -2 -4 -41 24 -86 61 -163 135 -408 300 -642 433 -78 44 -262 139 -269 139
-9 0 -1 -43 21 -115 67 -226 163 -499 209 -602 13 -28 24 -54 24 -58 0 -16
144 -302 184 -364 25 -39 46 -74 46 -77 0 -12 140 -188 214 -269 42 -46 110
-111 152 -144 75 -61 75 -61 42 -61 -169 -3 -476 -20 -633 -35 -22 -2 -74 -7
-115 -10 -41 -3 -91 -8 -110 -11 -19 -3 -57 -7 -85 -9 -27 -3 -66 -7 -85 -10
-19 -2 -54 -7 -77 -10 -99 -12 -123 -15 -228 -30 -99 -14 -307 -49 -367 -61
-13 -2 -36 -6 -53 -9 -16 -3 -41 -8 -55 -10 -54 -11 -76 -15 -105 -21 -16 -3
-50 -10 -75 -15 -25 -6 -54 -12 -65 -15 -64 -13 -96 -20 -255 -59 -174 -42
-438 -115 -515 -140 -22 -8 -105 -35 -185 -60 -80 -26 -158 -52 -175 -60 -16
-7 -41 -16 -55 -20 -14 -4 -52 -17 -85 -30 -179 -69 -254 -99 -292 -116 -23
-11 -44 -19 -47 -19 -3 0 -42 -17 -88 -38 -46 -21 -112 -52 -148 -68 -35 -16
-129 -62 -208 -101 -79 -40 -149 -73 -156 -73 -20 0 -220 166 -323 268 -183
183 -313 361 -419 577 -108 221 -163 410 -200 690 -10 78 -11 331 -2 435 26
287 118 641 220 848 8 16 21 22 47 23 20 1 50 2 66 4 36 3 135 7 152 6 6 -1
47 -74 91 -164 241 -491 551 -868 979 -1189 334 -250 774 -459 1183 -563 92
-23 310 -65 310 -60 0 2 -51 29 -112 60 -796 404 -1322 946 -1600 1648 -21 55
-41 112 -45 127 l-5 28 68 -24 c620 -222 1042 -640 1291 -1279 42 -108 91
-261 108 -342 15 -68 24 -66 25 7 2 100 -1 227 -5 248 -1 9 -6 50 -9 91 -4 41
-9 77 -10 80 -2 3 -7 29 -10 56 -4 28 -11 66 -16 85 -5 19 -11 46 -14 60 -12
61 -57 209 -96 312 -177 470 -520 877 -981 1161 -124 76 -210 121 -374 193
-119 53 -120 54 -126 91 -7 39 -3 529 4 573 3 14 8 57 11 95 4 39 9 77 11 85
2 8 6 33 10 55 11 81 17 113 42 230 32 153 90 357 106 371 10 10 103 31 207
48 193 30 322 39 565 40 294 0 428 -11 695 -60 107 -20 365 -87 377 -98 1 -1
-4 -26 -13 -56 -15 -57 -50 -207 -57 -250 -3 -14 -12 -63 -21 -110 -16 -87
-30 -196 -43 -329 -16 -158 -8 -699 12 -802 2 -9 6 -40 10 -70 14 -117 44
-271 86 -441 109 -436 303 -881 557 -1273 74 -115 244 -345 254 -345 4 0 -2
24 -13 53 -86 213 -195 534 -214 625 -2 9 -12 51 -23 92 -38 142 -86 398 -98
524 -3 28 -7 62 -9 76 -23 126 -24 657 -1 775 2 11 7 45 10 76 4 31 8 66 11
77 2 11 7 42 11 69 5 26 8 50 9 53 1 3 4 19 8 35 4 17 9 42 11 56 7 45 64 250
94 344 55 165 168 435 184 435 11 0 101 -66 187 -138 64 -53 296 -283 336
-332 11 -14 38 -48 61 -75 218 -265 431 -652 574 -1040 18 -49 38 -94 43 -100
7 -7 8 -7 4 0 -3 6 -8 58 -11 115 -7 113 -37 317 -67 450 -6 25 -12 52 -14 60
-10 47 -92 322 -108 360 -5 14 -11 30 -13 35 -8 30 -70 174 -127 295 -126 267
-327 563 -536 790 -28 30 -51 58 -51 63 0 6 83 124 117 167 7 8 25 31 40 51
107 137 170 207 353 390 168 169 343 322 514 448 93 69 317 220 346 234 8 4
33 18 55 32 22 13 46 24 54 25 7 0 41 -16 75 -37z"/>
<path d="M1912 9970 c-44 -91 -114 -237 -157 -325 -43 -88 -103 -214 -135
-280 -32 -66 -95 -196 -140 -290 -45 -93 -107 -222 -137 -285 -31 -63 -87
-180 -125 -260 -39 -80 -101 -208 -138 -285 -37 -77 -100 -207 -140 -290 -40
-82 -102 -211 -137 -285 -63 -130 -105 -218 -275 -570 -44 -91 -93 -192 -108
-225 -16 -33 -82 -171 -148 -307 -66 -135 -123 -255 -127 -267 -6 -20 -4 -21
128 -20 l134 1 43 92 c24 50 92 190 150 311 58 121 119 248 135 283 17 35 36
62 45 63 21 1 1818 1 1853 0 25 -1 32 -9 61 -73 18 -40 52 -113 75 -161 22
-49 41 -90 41 -92 0 -2 24 -54 53 -116 30 -63 67 -143 82 -179 16 -36 36 -78
45 -95 l17 -30 371 -2 c205 -1 372 0 372 2 0 3 -94 211 -209 462 -209 458
-241 529 -279 613 -11 25 -39 86 -62 135 -23 50 -111 241 -195 425 -84 184
-166 364 -183 400 -56 123 -130 285 -156 343 -14 31 -38 83 -52 115 -15 31
-39 84 -54 117 -15 33 -41 89 -57 125 -43 93 -129 278 -216 470 -41 91 -88
194 -105 230 -16 36 -52 115 -80 177 -29 61 -65 140 -81 175 l-29 63 -80 -165z
m-102 -1080 c34 -74 96 -209 137 -300 42 -91 91 -199 110 -240 20 -41 54 -118
78 -170 23 -52 59 -131 80 -175 20 -44 82 -179 137 -300 55 -121 117 -256 138
-301 56 -121 57 -124 23 -124 -316 -5 -1618 1 -1616 7 3 13 69 153 187 397 58
120 106 219 106 221 0 1 45 96 101 211 56 115 116 241 134 279 18 39 75 158
127 265 52 107 114 237 138 287 25 51 47 89 52 85 4 -4 35 -68 68 -142z"/>
<path d="M13937 9954 c-1 -1 -38 -5 -82 -8 -96 -8 -138 -13 -250 -32 -59 -10
-251 -63 -320 -89 -353 -133 -670 -389 -864 -696 -109 -175 -214 -461 -247
-679 -12 -81 -14 -94 -20 -170 -17 -201 -6 -423 32 -615 19 -100 20 -105 44
-186 122 -409 363 -731 725 -965 170 -110 441 -216 640 -249 11 -2 47 -8 80
-14 116 -20 212 -26 405 -25 247 0 371 14 575 65 427 107 833 395 1058 751
l17 27 -58 48 c-31 26 -59 50 -62 53 -25 26 -181 152 -184 149 -2 -2 -20 -40
-41 -84 -163 -348 -474 -610 -830 -700 -91 -23 -116 -28 -225 -41 -101 -11
-303 -6 -391 11 -13 3 -41 7 -62 10 -126 19 -329 102 -449 182 -198 134 -352
313 -459 538 -95 199 -157 436 -175 665 -4 63 -4 326 1 385 19 224 77 445 170
641 162 343 423 584 750 692 50 17 107 33 129 36 21 4 42 8 46 11 28 17 381
27 485 13 438 -57 780 -301 990 -705 37 -71 48 -83 60 -64 3 6 58 54 123 108
64 54 127 107 139 118 l22 20 -64 86 c-64 86 -195 225 -270 287 -240 197 -613
361 -900 397 -27 3 -57 8 -65 10 -45 12 -463 28 -473 19z"/>
<path d="M21767 9954 c-1 -1 -38 -5 -82 -8 -582 -47 -1048 -331 -1189 -724
-41 -114 -54 -202 -49 -332 8 -219 80 -378 247 -546 116 -115 247 -210 399
-288 94 -48 470 -201 662 -269 605 -215 788 -294 931 -400 140 -104 186 -176
189 -297 5 -164 -54 -275 -208 -388 -110 -81 -289 -158 -412 -178 -22 -3 -43
-8 -46 -10 -4 -2 -37 -6 -75 -10 -38 -3 -82 -8 -99 -10 -81 -9 -386 -2 -472
11 -18 3 -50 8 -70 11 -72 10 -199 43 -253 64 -51 20 -214 107 -248 133 -91
68 -265 278 -286 345 -7 22 -11 22 -157 22 -82 0 -149 -4 -149 -9 0 -16 80
-183 117 -245 110 -182 267 -320 489 -430 149 -74 338 -122 559 -143 106 -10
463 -10 545 0 473 57 850 224 1087 481 80 87 131 170 172 276 37 95 42 129 46
270 7 231 -69 393 -268 576 -201 183 -447 299 -1107 521 -124 41 -351 123
-525 188 -234 87 -448 240 -504 360 -28 60 -37 149 -22 228 18 98 56 164 144
250 204 198 427 280 762 279 178 -1 306 -22 455 -74 230 -81 393 -204 492
-370 29 -49 46 -68 62 -69 31 -1 197 -1 227 0 l26 1 -17 63 c-60 216 -252 428
-507 560 -90 46 -265 110 -333 122 -19 3 -42 8 -50 10 -20 6 -64 13 -130 21
-48 6 -348 12 -353 8z"/>
<path d="M17749 9925 c-2 -1 -38 -6 -79 -9 -41 -3 -86 -7 -100 -10 -14 -3 -43
-7 -65 -11 -207 -30 -478 -129 -655 -239 -457 -282 -722 -706 -805 -1286 -13
-90 -15 -484 -2 -535 2 -11 7 -41 11 -66 43 -296 180 -621 355 -839 49 -61
184 -196 251 -251 156 -126 339 -227 531 -292 118 -40 198 -60 319 -81 19 -3
49 -8 65 -11 156 -28 613 -25 740 5 22 5 40 9 40 9 0 -3 98 17 160 32 508 129
926 465 1143 919 46 97 105 250 116 303 3 12 12 51 21 86 31 128 48 287 48
451 0 108 -8 240 -17 285 -2 11 -7 43 -11 70 -32 224 -142 506 -273 705 -57
86 -68 100 -132 174 -191 219 -528 433 -790 501 -8 2 -46 13 -85 23 -82 23
-228 49 -340 61 -78 8 -439 13 -446 6z m391 -270 c14 -3 43 -8 65 -11 68 -11
217 -63 293 -104 153 -83 305 -219 412 -372 122 -173 231 -451 265 -678 3 -20
8 -47 10 -60 18 -88 25 -412 12 -550 -23 -249 -82 -469 -176 -661 -84 -170
-180 -295 -318 -414 -215 -185 -452 -268 -763 -269 -170 0 -280 16 -423 65
-185 62 -392 216 -525 389 -115 150 -220 379 -267 585 -14 61 -26 125 -31 160
-3 22 -7 49 -9 61 -17 80 -23 358 -12 504 38 481 232 889 539 1133 149 119
348 201 548 226 70 9 339 6 380 -4z"/>
<path d="M17884 8435 c-75 -134 -153 -207 -312 -291 -84 -44 -85 -40 28 -100
135 -71 230 -166 299 -298 19 -36 37 -63 42 -60 4 2 19 28 33 58 59 125 152
217 309 306 l97 54 -89 46 c-149 77 -223 148 -310 298 -23 39 -44 72 -46 72
-2 0 -25 -38 -51 -85z"/>
<path d="M3965 9902 c-2 -2 7 -32 20 -66 l23 -62 0 -1744 0 -1745 129 -3 128
-3 0 1431 c0 786 1 1430 3 1430 1 0 12 -21 23 -46 36 -85 143 -299 151 -302 4
-2 8 -8 8 -13 0 -16 106 -193 218 -363 124 -189 265 -377 480 -639 157 -192
324 -401 352 -443 8 -12 35 -51 60 -86 79 -110 131 -198 205 -347 120 -242
150 -332 158 -478 0 -7 2 -13 4 -13 3 0 44 64 72 113 10 18 49 84 86 147 37
63 75 129 85 145 9 17 133 228 275 470 141 242 281 481 310 530 125 214 202
346 255 435 31 52 68 115 82 140 69 122 529 905 536 912 5 5 9 -663 10 -1484
0 -821 1 -1503 1 -1515 l1 -22 337 2 338 2 0 1807 c0 1599 -2 1807 -15 1810
-8 2 -150 4 -315 3 l-300 0 -86 -145 c-107 -181 -322 -547 -348 -593 -11 -19
-38 -65 -60 -102 -23 -37 -41 -69 -41 -71 0 -3 -8 -17 -19 -32 -17 -26 -101
-166 -144 -242 -11 -19 -87 -150 -169 -290 -83 -140 -198 -336 -256 -435 -146
-250 -255 -434 -280 -475 -12 -19 -29 -50 -39 -67 -9 -18 -19 -33 -22 -33 -3
0 -24 33 -45 73 -55 101 -318 483 -356 517 -3 3 -30 37 -60 75 -29 39 -105
133 -169 210 -63 77 -166 210 -230 295 -63 85 -126 171 -141 190 -66 89 -220
336 -276 445 -93 178 -170 381 -244 640 l-12 40 -360 0 c-198 0 -361 -1 -363
-3z"/>
<path d="M8610 9897 c0 -8 127 -191 530 -767 18 -25 121 -173 231 -330 109
-157 203 -292 209 -300 10 -15 101 -145 160 -230 71 -102 130 -186 137 -195 5
-5 35 -50 68 -98 l60 -89 1 -796 c1 -439 2 -800 3 -804 0 -4 154 -7 340 -7
l339 -1 1 805 0 806 137 197 c301 430 418 599 609 872 109 157 212 303 227
325 15 22 42 60 59 85 202 289 369 529 369 532 0 5 -318 3 -323 -2 -5 -6 -301
-435 -392 -568 -87 -128 -177 -258 -205 -297 -33 -46 -413 -597 -487 -707 -37
-54 -69 -98 -72 -98 -3 0 -40 50 -81 112 -41 61 -80 116 -85 122 -6 6 -47 66
-92 132 -83 123 -275 401 -333 484 -38 53 -528 765 -551 800 l-16 25 -422 0
c-231 0 -421 -3 -421 -8z"/>
<path d="M13179 5408 c-24 -35 -45 -65 -49 -68 -3 -3 -30 -41 -59 -85 -30 -44
-74 -108 -98 -141 -23 -34 -43 -65 -43 -70 0 -10 56 -50 66 -47 7 2 214 193
285 264 65 64 80 105 55 144 -19 29 -51 50 -88 59 -25 6 -31 0 -69 -56z"/>
<path d="M7965 5384 c-22 -7 -41 -14 -41 -14 -11 -1 -25 -68 -20 -93 5 -28
199 -322 240 -365 10 -10 19 -10 49 3 20 8 37 18 37 22 0 11 -172 437 -180
446 -13 14 -46 15 -85 1z"/>
<path d="M20928 5067 c-47 -24 -47 -23 -35 -127 8 -66 10 -185 3 -220 -3 -14
-7 -43 -11 -65 -26 -179 -132 -446 -271 -683 -73 -124 -381 -572 -440 -641
-12 -13 -26 69 -27 154 -1 117 7 205 27 307 8 40 20 100 26 133 5 33 12 71 15
85 3 14 14 75 25 135 12 61 24 124 27 140 4 17 7 37 8 45 1 8 7 42 13 75 7 33
14 78 17 100 4 22 8 51 11 65 14 70 12 279 -3 337 -31 123 -116 179 -255 169
-230 -16 -440 -202 -526 -463 -43 -130 -46 -326 -7 -403 43 -84 160 -86 205
-4 9 16 7 28 -9 60 -88 168 -26 484 120 623 46 43 125 81 169 81 66 0 106 -76
95 -182 -10 -102 -15 -144 -19 -163 -2 -11 -7 -40 -11 -65 -4 -25 -9 -54 -11
-65 -2 -11 -13 -72 -24 -135 -12 -63 -27 -146 -35 -185 -7 -38 -16 -86 -19
-105 -3 -19 -7 -44 -10 -55 -71 -354 -86 -515 -60 -663 29 -165 112 -272 213
-272 25 0 72 57 206 250 11 16 96 133 188 260 93 127 176 244 185 260 9 17 20
30 25 30 4 0 7 4 7 9 0 5 23 47 52 93 101 163 207 385 268 563 66 190 87 382
51 460 -10 22 -27 48 -38 58 -31 27 -95 29 -145 4z"/>
<path d="M471 5064 c-86 -23 -171 -74 -247 -149 -144 -142 -217 -324 -215
-540 0 -131 22 -190 81 -220 49 -25 106 -8 144 43 19 25 19 26 -2 66 -35 68
-45 129 -39 240 13 231 128 425 273 457 74 17 114 4 137 -42 37 -76 23 -186
-73 -564 -27 -104 -72 -282 -100 -395 -29 -113 -67 -257 -86 -320 -62 -205
-145 -341 -249 -406 -53 -34 -57 -47 -33 -97 44 -89 129 -93 208 -9 77 82 130
211 210 510 28 103 52 196 54 207 12 57 168 671 175 682 4 8 19 -37 35 -104
30 -130 88 -370 200 -838 41 -170 77 -321 79 -335 5 -25 25 -105 32 -126 2 -8
18 -9 57 -2 29 5 54 11 56 13 3 2 147 570 157 618 11 48 167 660 184 717 27
96 83 231 122 297 19 32 64 88 102 126 37 37 67 72 67 78 0 27 -36 81 -63 95
-33 18 -87 12 -125 -12 -33 -22 -94 -120 -130 -211 -43 -107 -84 -255 -192
-693 -100 -405 -120 -483 -125 -478 -2 2 -5 17 -8 33 -3 17 -44 188 -92 380
-87 353 -103 422 -111 462 -2 12 -20 78 -39 145 -78 274 -166 378 -325 384
-36 1 -89 -4 -119 -12z"/>
<path d="M16276 5071 c-2 -3 -25 -94 -51 -201 -26 -107 -50 -197 -52 -200 -2
-2 -76 -5 -164 -5 -173 0 -169 1 -183 -57 l-6 -28 166 0 166 0 -7 -32 c-3 -18
-13 -53 -20 -78 -8 -25 -26 -94 -40 -155 -35 -149 -33 -145 -57 -94 -30 63
-96 123 -152 139 -61 17 -174 8 -246 -19 -212 -79 -410 -355 -474 -661 -14
-65 -15 -245 -2 -305 4 -16 17 -52 30 -80 55 -119 150 -184 277 -187 135 -3
222 34 332 143 l77 78 0 -32 c1 -74 61 -155 130 -176 123 -37 249 0 350 100
52 53 110 130 110 146 0 5 5 14 11 20 8 8 20 -7 46 -57 72 -145 220 -228 398
-225 190 4 346 71 490 211 40 39 72 63 70 55 -6 -31 -64 -262 -140 -556 -42
-165 -78 -307 -80 -315 -2 -8 -10 -43 -19 -76 -9 -34 -16 -65 -16 -68 0 -3 51
-6 114 -6 l114 0 21 88 c12 48 42 166 67 262 24 96 46 182 48 190 2 8 14 51
25 95 12 44 24 91 27 105 3 14 17 71 32 127 l28 102 22 -48 c23 -51 79 -112
124 -135 14 -8 46 -17 70 -21 46 -9 177 -8 218 0 14 2 41 7 60 10 344 55 663
319 736 609 5 21 1 25 -31 36 -39 13 -54 5 -55 -29 0 -22 -57 -128 -99 -185
-46 -62 -130 -140 -203 -188 -66 -44 -198 -111 -205 -104 -3 2 7 17 21 33 64
67 146 214 190 340 42 118 59 234 53 348 -7 110 -22 172 -62 240 -116 197
-389 194 -587 -7 -36 -37 -63 -53 -38 -23 7 8 10 15 7 15 -3 0 1 21 9 46 7 26
12 50 9 53 -5 9 -211 8 -220 0 -3 -4 -7 -15 -9 -25 -2 -11 -21 -84 -41 -164
-20 -80 -38 -153 -40 -162 -13 -63 -68 -254 -85 -294 -69 -160 -204 -298 -360
-368 -220 -99 -400 -41 -464 148 -24 74 -22 91 13 94 45 3 201 57 273 93 255
128 411 321 404 501 -4 109 -55 181 -155 219 -48 18 -70 20 -151 16 -144 -8
-249 -59 -376 -182 -140 -137 -241 -353 -260 -560 -22 -238 -287 -466 -354
-305 -20 47 -7 141 55 400 30 125 118 472 126 495 8 25 89 354 89 362 0 2 44
3 98 3 l99 0 11 37 c6 20 9 39 6 42 -2 3 -46 6 -97 7 -51 1 -93 2 -93 3 -1 0
9 43 23 94 13 50 31 119 38 152 8 33 19 76 25 95 20 69 22 68 -100 68 -61 0
-112 -3 -114 -7z m913 -841 c123 -124 -52 -419 -319 -538 -65 -29 -159 -57
-166 -49 -10 10 16 135 43 207 89 238 244 410 370 410 33 0 48 -6 72 -30z
m-1292 -16 c38 -24 48 -35 65 -69 39 -75 40 -170 3 -320 -19 -78 -23 -95 -30
-127 -30 -136 -112 -293 -190 -360 -35 -31 -119 -68 -160 -71 -121 -10 -192
77 -200 247 -11 236 113 529 280 663 74 60 174 76 232 37z m2380 -4 c34 -20
67 -75 80 -131 15 -68 5 -220 -20 -320 -78 -301 -245 -500 -412 -490 -86 5
-137 54 -160 155 -12 51 -12 63 0 166 26 208 117 431 220 536 93 94 217 130
292 84z"/>
<path d="M2375 5000 c-23 -9 -50 -39 -234 -270 -138 -173 -141 -181 -67 -172
19 2 48 17 67 35 20 18 73 66 119 107 47 41 98 87 114 103 16 15 32 27 36 27
4 0 28 -39 53 -87 94 -181 92 -178 123 -183 16 -3 38 -4 50 -2 20 3 18 10 -32
185 -59 203 -66 220 -103 244 -28 18 -94 25 -126 13z"/>
<path d="M7772 5001 c-13 -4 -91 -92 -197 -225 -96 -120 -175 -219 -175 -220
0 -1 23 0 51 1 51 4 55 7 202 139 107 97 152 133 160 125 6 -6 41 -68 78 -138
l67 -127 44 3 c24 1 44 4 46 6 2 1 -13 58 -33 126 -20 68 -43 148 -51 177 -17
65 -25 81 -57 110 -25 24 -90 35 -135 23z"/>
<path d="M22432 5003 c-21 -4 -54 -40 -152 -163 -19 -24 -55 -69 -80 -100 -25
-30 -67 -83 -93 -118 l-48 -62 48 0 c41 0 54 6 88 36 82 73 188 169 223 201
20 18 39 33 42 33 4 0 39 -59 77 -132 42 -77 78 -134 89 -138 11 -3 33 -4 50
-1 l31 6 -56 190 c-34 113 -65 200 -76 212 -34 37 -79 48 -143 36z"/>
<path d="M13237 4894 c-92 -108 -124 -136 -185 -166 -55 -27 -75 -32 -141 -32
-112 0 -152 32 -172 142 -13 69 -24 83 -57 77 -40 -7 -46 -20 -46 -103 2 -167
55 -234 197 -250 125 -15 234 22 325 107 88 82 174 220 149 238 -32 25 -39 24
-70 -13z"/>
<path d="M6695 4852 c-1 -2 -34 -5 -71 -9 -38 -3 -74 -10 -80 -17 -6 -6 -39
-124 -74 -263 l-62 -251 -66 1 -66 1 -13 -49 c-19 -73 -19 -71 47 -70 34 1 60
-3 60 -9 0 -5 -27 -118 -59 -250 -33 -133 -62 -252 -64 -266 -3 -14 -8 -36
-11 -50 -14 -58 -18 -91 -23 -191 -7 -132 10 -200 65 -258 65 -69 198 -83 330
-37 90 32 211 131 285 234 l31 43 13 -53 c28 -109 106 -199 204 -233 43 -16
145 -21 204 -10 82 15 209 101 270 184 14 19 25 31 26 25 6 -72 40 -147 81
-177 63 -47 202 -51 290 -9 24 12 70 45 103 74 36 32 56 45 51 33 -4 -11 -9
-28 -11 -38 -2 -10 -7 -27 -10 -38 -4 -10 -3 -19 2 -20 43 -4 207 -3 214 2 6
3 41 129 80 279 81 319 106 396 161 508 49 99 147 210 212 240 62 30 137 34
184 11 97 -48 95 -85 -37 -611 -89 -355 -105 -428 -92 -429 9 -1 58 -1 110 -2
72 0 97 3 103 14 4 8 42 149 83 314 101 401 155 528 269 640 63 62 114 87 187
93 100 8 150 -37 154 -136 2 -69 -13 -142 -71 -327 -98 -317 -115 -439 -76
-528 21 -48 70 -90 117 -102 17 -4 59 -7 94 -6 167 2 314 117 419 327 31 62
94 234 106 291 7 29 5 32 -29 43 -20 7 -38 10 -39 8 -2 -1 -15 -43 -30 -93
-73 -237 -195 -401 -312 -418 -43 -6 -80 17 -94 58 -19 58 -4 148 55 335 74
231 94 312 99 388 8 146 -38 245 -139 300 -32 18 -183 24 -239 10 -90 -22
-226 -118 -287 -203 -18 -25 -33 -44 -35 -42 -1 1 -5 20 -8 42 -9 57 -16 75
-44 117 -53 80 -163 115 -287 91 -92 -19 -84 -16 -130 -38 -56 -27 -149 -99
-187 -146 -17 -21 -33 -37 -35 -35 -2 2 5 40 16 84 12 44 21 82 21 84 0 6
-218 3 -224 -3 -4 -4 -8 -15 -10 -25 -8 -36 -117 -470 -142 -559 -77 -281
-190 -444 -316 -459 -24 -3 -38 3 -60 24 -44 44 -43 77 7 320 2 8 13 53 25
100 12 47 23 92 25 100 5 26 116 474 121 490 3 13 -12 16 -107 15 -125 0 -119
3 -140 -88 l-12 -58 -24 49 c-27 57 -69 104 -115 129 -26 14 -56 18 -133 18
-92 0 -105 -3 -169 -33 -39 -18 -90 -49 -115 -70 -25 -20 -54 -44 -64 -52 -10
-8 -46 -51 -78 -94 -101 -133 -175 -300 -199 -452 -6 -38 -13 -78 -15 -89 -7
-33 -93 -155 -143 -202 -97 -92 -210 -129 -279 -92 -34 18 -55 73 -55 142 0
54 6 92 37 237 3 14 10 39 15 55 5 17 11 41 14 55 12 64 100 406 107 415 4 6
58 10 128 10 l121 0 16 54 c10 34 12 56 6 60 -6 3 -62 6 -126 5 -64 -1 -116 1
-116 3 0 2 29 123 65 268 36 146 65 267 65 270 0 4 -70 2 -75 -3z m966 -630
c69 -27 115 -136 105 -253 -3 -38 -7 -73 -10 -77 -2 -4 -7 -23 -10 -42 -16
-96 -70 -274 -107 -348 -66 -135 -173 -227 -269 -233 -82 -4 -99 0 -138 39
-49 49 -72 119 -73 227 -1 55 2 78 15 155 19 105 63 214 143 354 17 30 125
146 136 146 5 0 21 9 36 19 41 29 114 35 172 13z"/>
<path d="M23299 4856 c-2 -2 -38 -7 -79 -10 -105 -9 -111 -11 -121 -28 -7 -12
-76 -279 -114 -438 -17 -73 -12 -69 -77 -67 -33 1 -63 -2 -67 -8 -8 -11 -31
-86 -31 -102 0 -5 27 -9 60 -8 37 1 60 -3 60 -9 0 -13 -82 -347 -105 -430 -77
-277 -338 -502 -586 -507 -137 -3 -241 81 -279 224 -13 47 -10 59 13 63 55 10
81 17 145 38 347 118 584 387 537 607 -16 75 -53 121 -130 162 -59 32 -235 31
-317 -2 -256 -100 -463 -404 -492 -719 -4 -48 -50 -144 -98 -206 -146 -188
-308 -202 -308 -27 0 44 24 172 50 266 10 39 21 81 24 95 5 25 80 332 114 465
27 106 32 100 -86 100 -57 0 -107 -2 -112 -5 -6 -4 -146 -536 -175 -670 -62
-277 -62 -378 -3 -463 35 -49 85 -67 183 -68 97 0 185 37 275 117 34 31 133
159 142 184 5 12 7 11 13 -5 74 -205 231 -308 456 -299 96 4 157 19 246 59
119 55 217 130 295 228 l38 49 0 -61 c0 -34 1 -64 2 -68 34 -149 101 -204 247
-204 231 -1 446 194 571 517 47 123 47 130 5 144 -20 7 -38 10 -39 8 -1 -1
-13 -34 -26 -73 -77 -237 -233 -411 -390 -436 -63 -10 -104 11 -124 62 -31 76
-23 150 41 404 24 99 47 189 50 200 2 11 6 30 8 42 2 12 8 37 14 55 6 18 12
44 15 58 2 14 9 43 15 65 l10 40 121 0 c67 0 125 2 129 5 14 9 33 103 23 109
-6 3 -62 6 -126 5 -64 -1 -116 0 -116 2 0 2 17 71 62 249 5 22 11 48 13 59 3
10 16 63 30 117 14 54 25 102 25 108 0 10 -22 15 -31 7z m-870 -612 c50 -35
64 -124 35 -211 -54 -158 -222 -306 -423 -372 -91 -30 -93 -29 -86 22 30 215
188 481 330 556 48 25 112 27 144 5z"/>
<path d="M21470 4793 c-34 -7 -87 -48 -105 -83 -8 -16 -15 -50 -15 -75 0 -38
5 -52 29 -76 16 -16 35 -29 43 -30 7 0 24 -2 38 -3 89 -10 185 76 173 154 -6
43 -24 78 -48 94 -26 17 -79 26 -115 19z"/>
<path d="M2021 4345 c-172 -64 -334 -243 -425 -469 -55 -135 -70 -208 -70
-341 -1 -136 4 -166 41 -248 51 -114 156 -178 294 -179 126 -1 232 51 333 163
24 27 47 49 50 49 3 0 6 -13 6 -28 0 -42 45 -124 83 -150 44 -29 106 -40 185
-30 75 9 143 43 206 105 51 49 52 48 32 -20 -12 -40 -12 -47 0 -48 8 0 59 -1
115 -2 l101 -1 74 290 c80 315 98 374 151 478 90 179 208 281 339 293 124 11
171 -41 161 -177 -7 -93 -6 -85 -66 -288 -80 -269 -94 -331 -94 -412 0 -114
30 -169 112 -205 75 -33 226 -14 311 40 52 33 136 118 170 173 l28 45 12 -39
c37 -111 105 -185 201 -219 43 -16 149 -21 204 -10 58 11 151 62 208 115 55
51 58 52 51 24 -4 -16 -11 -38 -17 -49 -6 -11 -9 -21 -8 -23 3 -3 -8 -60 -20
-99 -9 -28 -25 -39 -117 -86 -240 -122 -346 -191 -421 -272 -92 -102 -120
-218 -75 -315 74 -161 344 -170 504 -17 138 131 249 346 309 603 12 48 15 53
64 75 135 61 261 148 339 234 77 87 160 244 193 365 7 25 15 55 19 66 5 18 1
24 -25 33 -18 6 -35 11 -40 11 -4 0 -17 -33 -29 -72 -53 -175 -143 -313 -263
-404 -72 -54 -197 -127 -205 -120 -2 3 5 42 18 87 12 44 23 89 25 98 2 9 17
72 35 141 17 69 33 132 35 140 2 8 29 116 60 240 31 124 58 233 60 243 2 10
13 51 25 93 11 41 20 78 20 82 0 6 -193 9 -221 3 -4 0 -15 -33 -24 -72 l-18
-71 -18 42 c-49 109 -108 151 -219 158 -101 6 -183 -16 -268 -71 -201 -131
-351 -381 -395 -659 -9 -53 -26 -116 -38 -140 -69 -137 -169 -229 -249 -231
-60 -1 -83 26 -88 106 -5 71 12 147 77 342 77 233 97 348 77 454 -16 85 -83
162 -166 190 -8 3 -58 5 -110 5 -151 -1 -255 -52 -382 -186 l-66 -70 24 88
c13 49 24 96 24 105 0 13 -17 15 -112 14 l-112 -1 -18 -74 c-11 -41 -21 -82
-23 -90 -133 -570 -209 -761 -340 -852 -94 -65 -175 -27 -175 81 0 63 26 185
121 563 49 197 89 361 89 366 0 6 -162 9 -216 3 -7 0 -20 -34 -30 -73 -17 -70
-18 -72 -27 -43 -17 50 -66 114 -110 142 -36 23 -55 27 -132 29 -75 3 -101 -1
-154 -21z m249 -127 c78 -33 120 -170 95 -303 -40 -206 -100 -389 -154 -474
-111 -172 -300 -228 -393 -117 -76 91 -70 331 14 541 109 276 286 418 438 353z
m2638 -4 c62 -36 93 -118 88 -233 -4 -90 -63 -339 -102 -431 -77 -181 -192
-282 -320 -283 -72 -1 -112 25 -149 97 -72 143 -26 427 107 650 66 111 156
191 248 219 28 8 101 -2 128 -19z m-186 -1385 c-81 -267 -181 -408 -301 -425
-73 -10 -131 45 -131 123 1 95 120 222 302 322 111 61 151 81 155 78 1 -2 -10
-46 -25 -98z"/>
<path d="M11423 4253 c-44 -65 -112 -165 -152 -223 -40 -58 -91 -133 -114
-166 -36 -54 -46 -63 -80 -67 -112 -15 -191 -146 -190 -317 1 -110 27 -180 94
-254 90 -99 181 -128 384 -122 166 5 190 9 296 46 117 42 213 102 303 192 79
79 91 88 83 66 -7 -21 31 -119 66 -171 90 -134 288 -169 457 -82 50 26 127 94
164 144 l24 33 12 -56 c22 -108 93 -166 205 -167 144 -2 257 67 355 216 l46
71 23 -53 c49 -111 136 -188 251 -224 81 -26 227 -27 315 -4 221 59 413 227
520 458 32 70 65 159 65 177 0 8 -69 35 -74 28 -2 -1 -11 -28 -21 -58 -18 -54
-62 -150 -74 -160 -3 -3 -19 -25 -36 -49 -76 -113 -250 -231 -384 -261 -111
-26 -229 4 -286 72 -63 74 -86 153 -81 278 9 222 124 478 271 599 154 128 292
40 229 -145 -19 -58 -8 -74 54 -77 138 -5 184 219 66 323 -55 47 -100 62 -199
66 -67 2 -105 -2 -151 -16 -154 -49 -315 -201 -408 -387 -29 -58 -77 -183 -71
-183 3 0 0 -11 -5 -25 -9 -24 -20 -88 -25 -150 -6 -70 -55 -173 -117 -244
-104 -119 -213 -128 -237 -18 -11 47 34 311 70 407 5 14 12 43 15 65 3 22 8
43 11 47 2 5 6 16 8 25 2 10 24 101 50 203 25 102 48 194 51 205 3 20 -1 21
-108 20 -125 0 -114 6 -141 -90 l-14 -50 -12 30 c-22 55 -64 106 -110 133 -42
24 -55 27 -146 27 -92 0 -105 -3 -169 -33 -62 -29 -206 -134 -206 -151 0 -3
-16 -24 -36 -45 -95 -106 -198 -338 -219 -496 -11 -81 -110 -203 -240 -295
-36 -26 -68 -46 -70 -44 -2 2 7 27 20 54 41 90 60 234 44 335 -10 61 -32 167
-79 380 -11 49 -22 157 -24 229 l-1 46 -70 12 c-125 21 -113 27 -202 -104z
m1365 -32 c64 -34 102 -126 98 -232 -4 -82 -5 -85 -46 -249 -47 -190 -88 -280
-169 -372 -80 -90 -212 -128 -292 -82 -35 20 -83 100 -94 159 -26 135 22 363
114 532 68 126 172 229 255 252 36 10 109 6 134 -8z m-1284 -103 c8 -75 9 -82
37 -223 32 -165 34 -176 32 -270 -2 -158 -58 -295 -143 -351 -83 -55 -193 -63
-278 -20 -53 28 -73 49 -108 114 l-24 45 41 27 c22 15 52 45 66 66 33 48 61
136 57 181 -2 28 9 52 59 128 34 51 104 156 156 234 52 78 95 140 96 139 2 -2
6 -33 9 -70z"/>
<path d="M16844 2870 c-56 -22 -93 -104 -81 -177 8 -47 31 -70 85 -81 35 -8
49 -6 84 12 125 63 105 257 -26 255 -22 0 -50 -4 -62 -9z"/>
<path d="M22085 2861 c-60 -36 -88 -116 -65 -185 31 -95 191 -85 233 14 27 66
7 158 -40 179 -36 17 -94 13 -128 -8z"/>
</g>
</svg>
